HIERARCHY
ROOT pelvis
{
  OFFSET 0 100 0
  CHANNELS 6 Xposition Yposition Zposition Zrotation Xrotation Yrotation
  JOINT pelvis_right_femur
  {
    OFFSET -10.78128 -3.44521 -0.5502486
    CHANNELS 3 Zrotation Xrotation Yrotation
    JOINT right_femur_tibia
    {
      OFFSET -0.8047443 -44.0398 -0.1307829
      CHANNELS 3 Zrotation Xrotation Yrotation
      JOINT right_tibia_foot
      {
        OFFSET 3.006224 -47.83518 -5
        CHANNELS 3 Zrotation Xrotation Yrotation
        End Site
        {
          OFFSET 0 -5 15
        }
      }
    }
  }
  JOINT pelvis_left_femur
  {
    OFFSET 10.78128 -3.44521 -0.5502486
    CHANNELS 3 Zrotation Xrotation Yrotation
    JOINT left_femur_tibia
    {
      OFFSET 0.8047443 -44.0398 -0.1307829
      CHANNELS 3 Zrotation Xrotation Yrotation
      JOINT left_tibia_foot
      {
        OFFSET -4.370144 -48.10324 -4.275266
        CHANNELS 3 Zrotation Xrotation Yrotation
        End Site
        {
          OFFSET 0 -5 15
        }
      }
    }
  }
  JOINT pelvis_spine1
  {
    OFFSET 0 6.468898 -3.129235
    CHANNELS 3 Zrotation Xrotation Yrotation
    JOINT spine1
    {
      OFFSET 0 23.15396 4.99043
      CHANNELS 3 Zrotation Xrotation Yrotation
      JOINT spine2
      {
        OFFSET 0 20.79997 -5.064912
        CHANNELS 3 Zrotation Xrotation Yrotation
        JOINT neck
        {
          OFFSET 0 14.38658 9.616178
          CHANNELS 3 Zrotation Xrotation Yrotation
          End Site
          {
            OFFSET 0 20 0
          }
        }
      }
      JOINT right_manubrium
      {
        OFFSET -5.722621 16.35077 3.967754
        CHANNELS 3 Zrotation Xrotation Yrotation
        JOINT right_clavicle
        {
          OFFSET -13.16364 1.694482 -4.693211
          CHANNELS 3 Zrotation Xrotation Yrotation
          JOINT right_humerus
          {
            OFFSET -28.5034 -0.3100689 -2.792744
            CHANNELS 3 Zrotation Xrotation Yrotation
            JOINT right_radius
            {
              OFFSET -25.15693 0.02248979 -1.271978
              CHANNELS 3 Zrotation Xrotation Yrotation
              End Site
              {
                OFFSET -15 0 0
              }
            }
          }
        }
      }
      JOINT left_manubrium
      {
        OFFSET 5.722621 16.35077 3.967754
        CHANNELS 3 Zrotation Xrotation Yrotation
        JOINT left_clavicle
        {
          OFFSET 13.16364 1.694482 -4.693211
          CHANNELS 3 Zrotation Xrotation Yrotation
          JOINT left_humerus
          {
            OFFSET 29.39168 -1.063119 -2.237045
            CHANNELS 3 Zrotation Xrotation Yrotation
            JOINT left_radius
            {
              OFFSET 24.59957 -0.9528479 0.9047498
              CHANNELS 3 Zrotation Xrotation Yrotation
              End Site
              {
                OFFSET 15 -0 -0
              }
            }
          }
        }
      }
    }
  }
}
MOTION
Frames: 17
Frame Time: 0.0416666666667
-873.4182 102.7746 2899.503 -2.496283 -5.608877 -34.3711 0.3430526 -23.67701 -2.478918 -0 16.64489 -0 -4.746384 1.492665 -4.959883 -5.372694 13.54122 -8.171901 -0 13.73272 -0 -1.00832 -19.33875 13.78773 0.6765661 -4.222101 8.554279 -0.1848946 15.68672 -4.819498 0.6293448 19.42023 2.939459 2.003663 -16.35178 3.334026 0.4604429 -30.29779 13.0381 84.23349 17.92975 -7.013468 -0 0 31.02229 -24.83029 17.9301 15.60382 2.988737 -22.7022 -7.688789 -96.69103 9.879758 38.24212 0 0 -4.355101 6.704084 14.7829 4.979643
-876.922 101.6193 2904.57 -2.038559 -5.102206 -33.96561 0.7991345 -25.17761 -2.714198 -0 11.1825 -0 -4.752734 1.553197 -5.13372 -5.439622 15.56321 -7.866559 -0 16.17423 -0 -1.425643 -19.62916 13.24453 0.4857108 -4.327747 8.792111 -0.2758093 15.13474 -4.464252 0.7066627 19.28539 2.881584 1.68081 -16.25281 3.610672 0.4384369 -30.80536 12.87777 83.19946 18.22445 -5.373549 -0 0 32.48212 -25.22636 18.50012 16.39845 2.965682 -21.8502 -7.120749 -97.00868 10.33636 39.20627 0 0 -4.07019 5.848687 14.67557 6.000133
-880.7279 100.6482 2909.859 -1.910953 -4.724473 -33.65623 1.684979 -25.30574 -2.386796 -0 8.420406 -0 -5.00666 1.898622 -5.320964 -5.283759 16.92204 -7.580794 -0 20.37863 -0 -2.059743 -18.7999 12.82614 0.2829946 -4.399101 8.994181 -0.379216 14.57083 -4.112555 0.7837602 19.20781 2.879555 1.431922 -16.17329 3.891041 0.4260793 -31.1655 12.70536 82.20465 18.56218 -3.854736 -0 0 33.6853 -25.6462 18.91027 17.10507 2.989597 -21.0483 -6.575291 -97.27278 10.8043 39.92082 0 0 -3.830439 5.128199 14.57216 6.842153
-884.8046 100.0793 2915.327 -2.208684 -4.525963 -33.50947 2.975337 -23.99477 -1.510466 -0 8.339545 -0 -5.504494 2.032506 -5.524372 -4.833088 17.3154 -7.334213 -0 26.4978 -0 -2.922817 -16.749 12.52052 0.07900653 -4.433549 9.15762 -0.4894041 14.02659 -3.776617 0.8577439 19.18944 2.923862 1.261201 -16.11114 4.157663 0.4290096 -31.37704 12.53391 81.28445 18.9234 -2.503735 -0 0 34.60609 -26.05621 19.14913 17.69796 3.046126 -20.32161 -6.074917 -97.49185 11.26484 40.39833 0 0 -3.594654 4.549511 14.48155 7.500979
-889.0549 100.0731 2920.875 -2.887229 -4.53897 -33.628 4.455517 -21.33701 -0.2814416 -0 10.27206 -0 -6.152869 1.565877 -5.70378 -4.15661 16.34721 -7.109014 -0 34.3463 -0 -3.789322 -13.71622 12.44665 -0.1174837 -4.432877 9.282587 -0.6002788 13.52626 -3.466665 0.926074 19.2251 3.001827 1.163698 -16.0629 4.397419 0.4505493 -31.45314 12.37425 80.46361 19.29112 -1.347343 -0 0 35.24924 -26.42824 19.22728 18.16595 3.121449 -19.68562 -5.633959 -97.67295 11.70243 40.6674 0 0 -3.339507 4.106141 14.40881 7.988322
-893.3249 100.6693 2926.361 -3.733882 -4.794947 -34.08926 5.732864 -17.58368 0.966538 -0 12.90805 -0 -6.778536 0.4071885 -5.766463 -3.464001 13.68696 -6.882388 -0 43.10194 -0 -4.376498 -10.38892 12.76412 -0.3002968 -4.402398 9.372001 -0.7064584 13.0843 -3.189655 0.9869471 19.30438 3.100439 1.127925 -16.02508 4.602981 0.4909645 -31.41715 12.23343 79.75411 19.65216 -0.3916002 -0 0 35.64421 -26.74425 19.17141 18.51204 3.204272 -19.14565 -5.258087 -97.82137 12.10629 40.7662 0 0 -3.059328 3.782205 14.35513 8.327087
-897.4545 101.7353 2931.647 -4.446828 -5.319049 -34.86749 6.409707 -13.0495 1.908139 -0 14.7566 -0 -7.16581 -1.232242 -5.596388 -2.96769 9.295492 -6.650933 -0 51.17207 -0 -4.610808 -7.681645 13.50633 -0.465922 -4.349335 9.430691 -0.8040136 12.70595 -2.948869 1.039452 19.4146 3.208523 1.139468 -15.99484 4.772437 0.54789 -31.29678 12.11448 79.15647 19.9974 0.3743124 -0 0 35.83486 -26.99711 19.0156 18.74958 3.286675 -18.69858 -4.94591 -97.94118 12.47059 40.73548 0 0 -2.760587 3.557274 14.31882 8.545121
-901.3447 102.9826 2936.647 -4.82272 -6.063976 -35.82281 6.368132 -8.06177 2.386986 -0 14.92802 -0 -7.179529 -3.032827 -5.131265 -2.677849 3.554924 -6.380519 -0 56.58525 -0 -4.612878 -6.194589 14.53157 -0.6130964 -4.281173 9.464335 -0.8906869 12.3895 -2.744353 1.083485 19.54347 3.317781 1.18416 -15.97019 4.907773 0.6174423 -31.11896 12.01732 78.66298 20.32132 0.9718139 -0 0 35.86895 -27.18829 18.7935 18.8972 3.363943 -18.3358 -4.691508 -98.03591 12.79366 40.61297 0 0 -2.455009 3.410492 14.29675 8.670019
-904.9851 104.0724 2941.364 -4.881735 -6.828843 -36.78823 5.89096 -2.995503 2.461186 -0 13.57711 -0 -6.892666 -4.798584 -4.420747 -2.339275 -2.85424 -5.950993 -0 57.8576 -0 -4.454576 -5.830921 15.62248 -0.7421626 -4.204508 9.478549 -0.9656888 12.12911 -2.573837 1.119521 19.68078 3.422837 1.250003 -15.94984 5.013111 0.6953768 -30.90652 11.93997 78.26138 20.62119 1.426811 -0 0 35.79053 -27.32442 18.53348 18.97441 3.433846 -18.04604 -4.486873 -98.10894 13.07673 40.43018 0 0 -2.154306 3.323175 14.28547 8.72593
-908.4239 104.7433 2945.882 -4.780112 -7.294692 -37.66673 5.420609 1.752753 2.315199 -0 11.5816 -0 -6.505106 -6.571214 -3.596642 -1.619864 -9.231209 -5.231695 -0 54.66638 -0 -4.117299 -5.997168 16.602 -0.8544336 -4.124507 9.47831 -1.029285 11.91716 -2.433742 1.148364 19.81901 3.520708 1.327851 -15.93293 5.0933 0.7778837 -30.67699 11.87957 77.9379 20.89634 1.765212 -0 0 35.6361 -27.41428 18.25683 18.99877 3.495796 -17.81758 -4.323651 -98.16361 13.32275 40.2114 0 0 -1.867479 3.279947 14.28195 8.732306
-911.7254 104.8788 2950.331 -4.64062 -7.209108 -38.4474 5.207183 5.904688 2.145964 -0 9.867374 -0 -6.122589 -8.538017 -2.795743 -0.3896759 -15.01087 -4.229419 -0 47.85515 -0 -3.667604 -6.131277 17.37643 -0.9516898 -4.044857 9.467712 -1.082372 11.74583 -2.319995 1.170942 19.95317 3.61011 1.411276 -15.9189 5.153034 0.8619522 -30.44279 11.83315 77.67921 21.14743 2.010361 -0 0 35.43365 -27.46678 17.97814 18.98476 3.550142 -17.63954 -4.194155 -98.20308 13.53552 39.97424 0 0 -1.600157 3.26884 14.28376 8.703951
-914.9538 104.5007 2954.843 -4.496209 -6.56118 -39.16263 5.193035 9.405256 2.088724 -0 9.00388 -0 -5.688236 -10.77783 -2.11046 1.142919 -19.75438 -3.153222 -0 39.01334 -0 -3.308938 -6.015609 17.93384 -1.035839 -3.967971 9.449951 -1.126137 11.60794 -2.228576 1.188174 20.08028 3.690831 1.496041 -15.90732 5.196437 0.9454195 -30.2121 11.79801 77.47342 21.37592 2.182005 -0 0 35.20356 -27.48991 17.70658 18.94359 3.597669 -17.50247 -4.091782 -98.23024 13.71902 39.73083 0 0 -1.355049 3.280864 14.2891 8.651717
-918.1733 103.7268 2959.531 -4.3314 -5.602871 -39.85088 5.129561 12.37807 2.172726 -0 9.191216 -0 -5.115349 -13.02928 -1.565261 2.496292 -23.1475 -2.366914 -0 30.00551 -0 -3.238958 -5.746532 18.33613 -1.108718 -3.89529 9.42744 -1.161834 11.49728 -2.155811 1.200902 20.19881 3.763268 1.579524 -15.89787 5.226933 1.026854 -29.98995 11.77182 77.3104 21.58366 2.296227 -0 0 34.96004 -27.49033 17.44742 18.88365 3.639307 -17.39846 -4.011085 -98.24761 13.87709 39.48913 0 0 -1.132762 3.309403 14.2967 8.583386
-921.4499 102.7261 2964.487 -4.129595 -4.723644 -40.53748 4.756331 14.96476 2.319712 -0 10.45578 -0 -4.442501 -14.65064 -1.117321 3.137554 -25.05504 -2.242977 -0 22.50731 -0 -3.48144 -5.550153 18.68866 -1.171997 -3.82757 9.401963 -1.190663 11.40867 -2.098495 1.209863 20.30821 3.828111 1.660199 -15.89027 5.24729 1.105382 -29.77914 11.75271 77.1818 21.77265 2.365842 -0 0 34.71273 -27.47344 17.20331 18.81108 3.675967 -17.32107 -3.94766 -98.25731 14.01324 39.25415 0 0 -0.9325905 3.349616 14.30566 8.504487
-924.8463 101.6858 2969.774 -3.894034 -4.260672 -41.21431 3.941367 17.16161 2.41051 -0 12.87651 -0 -3.853246 -14.84384 -0.7053548 2.766346 -25.53823 -2.951352 -0 17.56209 -0 -3.832808 -5.602819 19.07315 -1.227139 -3.765107 9.374827 -1.213703 11.33786 -2.053901 1.21569 20.40849 3.88616 1.737251 -15.88427 5.25971 1.180529 -29.58105 11.73914 77.08078 21.94487 2.400961 -0 0 34.46801 -27.4435 16.97521 18.73031 3.708464 -17.26506 -3.89799 -98.26109 14.13059 39.02886 0 0 -0.7531162 3.397953 14.31537 8.418961
-928.407 100.7971 2975.411 -3.644511 -4.351384 -41.82013 2.737614 18.76209 2.378127 -0 16.67942 -0 -3.542543 -13.04974 -0.31413 1.467984 -24.7868 -4.332493 -0 15.36173 -0 -3.969573 -5.939469 19.48119 -1.275406 -3.70791 9.346981 -1.231895 11.2814 -2.01975 1.218915 20.50002 3.938216 1.810315 -15.87966 5.265933 1.252086 -29.39609 11.72991 77.00182 22.10217 2.409524 -0 0 34.22995 -27.40383 16.76314 18.64453 3.737499 -17.22622 -3.859266 -98.26038 14.23189 38.81491 0 0 -0.5926018 3.451789 14.32538 8.32963
-932.1357 100.2445 2981.351 -3.408364 -4.911627 -42.24596 1.356276 19.4183 2.235697 -0 22.10833 -0 -3.569389 -9.260785 0.001775712 -0.3764052 -23.01267 -5.978211 -0 15.38042 -0 -3.639616 -6.481503 19.80873 -1.31787 -3.655808 9.319102 -1.246044 11.23651 -1.994156 1.219985 20.58335 3.985034 1.879306 -15.87625 5.267334 1.320028 -29.2241 11.72408 76.94046 22.24629 2.397741 -0 0 34.00107 -27.35701 16.56648 18.55601 3.763658 -17.20117 -3.829257 -98.25631 14.3195 38.61301 0 0 -0.4492178 3.50918 14.33541 8.238516
